<mxfile modified="2024-04-13T19:16:20.742Z" host="app.diagrams.net" agent="Mozilla/5.0 (Windows NT 10.0; Win64; x64) AppleWebKit/537.36 (KHTML, like Gecko) Chrome/123.0.0.0 Safari/537.36" etag="kkItuboRHrKYoFlJ3Yej" version="24.0.8" type="device">
  <diagram id="Ht1M8jgEwFfnCIfOTk4-" name="Page-1">
    <mxGraphModel dx="3794" dy="2220" grid="1" gridSize="12" guides="1" tooltips="1" connect="1" arrows="1" fold="1" page="1" pageScale="1" pageWidth="1169" pageHeight="827" math="0" shadow="0">
      <root>
        <mxCell id="0" />
        <mxCell id="1" parent="0" />
        <mxCell id="YxnOUZ2FoQ4_LDP_ITYw-26" value="" style="rounded=0;whiteSpace=wrap;html=1;" vertex="1" parent="1">
          <mxGeometry x="-960" y="-168" width="1020" height="804" as="geometry" />
        </mxCell>
        <mxCell id="YxnOUZ2FoQ4_LDP_ITYw-60" value="" style="rounded=0;whiteSpace=wrap;html=1;" vertex="1" parent="1">
          <mxGeometry x="-444" y="-108" width="456" height="684" as="geometry" />
        </mxCell>
        <mxCell id="YxnOUZ2FoQ4_LDP_ITYw-2" value="desktop" style="sketch=0;outlineConnect=0;gradientColor=none;fontColor=#545B64;strokeColor=none;fillColor=#879196;dashed=0;verticalLabelPosition=bottom;verticalAlign=top;align=center;html=1;fontSize=12;fontStyle=0;aspect=fixed;shape=mxgraph.aws4.illustration_desktop;pointerEvents=1" vertex="1" parent="1">
          <mxGeometry x="648" y="804" width="121.43" height="110.51" as="geometry" />
        </mxCell>
        <mxCell id="YxnOUZ2FoQ4_LDP_ITYw-27" style="edgeStyle=orthogonalEdgeStyle;rounded=0;orthogonalLoop=1;jettySize=auto;html=1;exitX=0.5;exitY=1;exitDx=0;exitDy=0;" edge="1" parent="1" source="YxnOUZ2FoQ4_LDP_ITYw-6" target="YxnOUZ2FoQ4_LDP_ITYw-2">
          <mxGeometry relative="1" as="geometry" />
        </mxCell>
        <mxCell id="YxnOUZ2FoQ4_LDP_ITYw-6" value="AWS Cloud" style="points=[[0,0],[0.25,0],[0.5,0],[0.75,0],[1,0],[1,0.25],[1,0.5],[1,0.75],[1,1],[0.75,1],[0.5,1],[0.25,1],[0,1],[0,0.75],[0,0.5],[0,0.25]];outlineConnect=0;gradientColor=none;html=1;whiteSpace=wrap;fontSize=12;fontStyle=0;container=1;pointerEvents=0;collapsible=0;recursiveResize=0;shape=mxgraph.aws4.group;grIcon=mxgraph.aws4.group_aws_cloud_alt;strokeColor=#232F3E;fillColor=none;verticalAlign=top;align=left;spacingLeft=30;fontColor=#232F3E;dashed=0;" vertex="1" parent="1">
          <mxGeometry x="220" y="-132" width="1088" height="780" as="geometry" />
        </mxCell>
        <mxCell id="YxnOUZ2FoQ4_LDP_ITYw-12" value="EC2 instance contents" style="points=[[0,0],[0.25,0],[0.5,0],[0.75,0],[1,0],[1,0.25],[1,0.5],[1,0.75],[1,1],[0.75,1],[0.5,1],[0.25,1],[0,1],[0,0.75],[0,0.5],[0,0.25]];outlineConnect=0;gradientColor=none;html=1;whiteSpace=wrap;fontSize=12;fontStyle=0;container=1;pointerEvents=0;collapsible=0;recursiveResize=0;shape=mxgraph.aws4.group;grIcon=mxgraph.aws4.group_ec2_instance_contents;strokeColor=#D86613;fillColor=none;verticalAlign=top;align=left;spacingLeft=30;fontColor=#D86613;dashed=0;" vertex="1" parent="YxnOUZ2FoQ4_LDP_ITYw-6">
          <mxGeometry x="80" y="96" width="556" height="432" as="geometry" />
        </mxCell>
        <mxCell id="YxnOUZ2FoQ4_LDP_ITYw-85" value="" style="rounded=0;whiteSpace=wrap;html=1;" vertex="1" parent="YxnOUZ2FoQ4_LDP_ITYw-12">
          <mxGeometry x="36" y="259" width="228" height="108" as="geometry" />
        </mxCell>
        <object label="" User="" id="YxnOUZ2FoQ4_LDP_ITYw-15">
          <mxCell style="sketch=0;outlineConnect=0;fontColor=#232F3E;gradientColor=none;fillColor=#232F3D;strokeColor=none;dashed=0;verticalLabelPosition=bottom;verticalAlign=top;align=center;html=1;fontSize=12;fontStyle=0;aspect=fixed;pointerEvents=1;shape=mxgraph.aws4.user;" vertex="1" parent="YxnOUZ2FoQ4_LDP_ITYw-12">
            <mxGeometry x="480" y="358" width="48" height="48" as="geometry" />
          </mxCell>
        </object>
        <mxCell id="YxnOUZ2FoQ4_LDP_ITYw-16" value="" style="shape=image;html=1;verticalAlign=top;verticalLabelPosition=bottom;labelBackgroundColor=#ffffff;imageAspect=0;aspect=fixed;image=https://cdn1.iconfinder.com/data/icons/operating-system-flat-1/30/ubuntu-128.png;direction=south;" vertex="1" parent="YxnOUZ2FoQ4_LDP_ITYw-12">
          <mxGeometry x="516" y="17" width="32" height="32" as="geometry" />
        </mxCell>
        <mxCell id="YxnOUZ2FoQ4_LDP_ITYw-28" value="" style="sketch=0;outlineConnect=0;fontColor=#232F3E;gradientColor=none;fillColor=#232F3D;strokeColor=none;dashed=0;verticalLabelPosition=bottom;verticalAlign=top;align=center;html=1;fontSize=12;fontStyle=0;aspect=fixed;pointerEvents=1;shape=mxgraph.aws4.git_repository;" vertex="1" parent="YxnOUZ2FoQ4_LDP_ITYw-12">
          <mxGeometry x="48" y="292" width="32.31" height="42" as="geometry" />
        </mxCell>
        <mxCell id="YxnOUZ2FoQ4_LDP_ITYw-30" value="" style="whiteSpace=wrap;html=1;aspect=fixed;" vertex="1" parent="YxnOUZ2FoQ4_LDP_ITYw-12">
          <mxGeometry x="36" y="72" width="80" height="80" as="geometry" />
        </mxCell>
        <mxCell id="YxnOUZ2FoQ4_LDP_ITYw-39" value="" style="sketch=0;outlineConnect=0;fontColor=#232F3E;gradientColor=none;fillColor=#232F3D;strokeColor=none;dashed=0;verticalLabelPosition=bottom;verticalAlign=top;align=center;html=1;fontSize=12;fontStyle=0;aspect=fixed;pointerEvents=1;shape=mxgraph.aws4.git_repository;" vertex="1" parent="YxnOUZ2FoQ4_LDP_ITYw-12">
          <mxGeometry x="59.839999999999975" y="91" width="32.31" height="42" as="geometry" />
        </mxCell>
        <mxCell id="YxnOUZ2FoQ4_LDP_ITYw-79" value="" style="sketch=0;outlineConnect=0;fontColor=#232F3E;gradientColor=none;fillColor=#232F3D;strokeColor=none;dashed=0;verticalLabelPosition=bottom;verticalAlign=top;align=center;html=1;fontSize=12;fontStyle=0;aspect=fixed;pointerEvents=1;shape=mxgraph.aws4.git_repository;" vertex="1" parent="YxnOUZ2FoQ4_LDP_ITYw-12">
          <mxGeometry x="215.83999999999992" y="30" width="32.31" height="42" as="geometry" />
        </mxCell>
        <mxCell id="YxnOUZ2FoQ4_LDP_ITYw-80" value="" style="whiteSpace=wrap;html=1;aspect=fixed;" vertex="1" parent="YxnOUZ2FoQ4_LDP_ITYw-12">
          <mxGeometry x="192.01" y="30" width="174" height="174" as="geometry" />
        </mxCell>
        <mxCell id="YxnOUZ2FoQ4_LDP_ITYw-81" value="" style="sketch=0;outlineConnect=0;fontColor=#232F3E;gradientColor=none;fillColor=#232F3D;strokeColor=none;dashed=0;verticalLabelPosition=bottom;verticalAlign=top;align=center;html=1;fontSize=12;fontStyle=0;aspect=fixed;pointerEvents=1;shape=mxgraph.aws4.git_repository;" vertex="1" parent="YxnOUZ2FoQ4_LDP_ITYw-12">
          <mxGeometry x="214.86" y="49" width="26.93" height="35" as="geometry" />
        </mxCell>
        <mxCell id="YxnOUZ2FoQ4_LDP_ITYw-86" value="" style="verticalLabelPosition=bottom;html=1;verticalAlign=top;align=center;strokeColor=none;fillColor=#00BEF2;shape=mxgraph.azure.cloud_services_configuration_file;pointerEvents=1;" vertex="1" parent="YxnOUZ2FoQ4_LDP_ITYw-12">
          <mxGeometry x="188" y="292" width="36" height="36" as="geometry" />
        </mxCell>
        <mxCell id="YxnOUZ2FoQ4_LDP_ITYw-87" value="" style="verticalLabelPosition=bottom;html=1;verticalAlign=top;align=center;strokeColor=none;fillColor=#00BEF2;shape=mxgraph.azure.cloud_services_configuration_file;pointerEvents=1;" vertex="1" parent="YxnOUZ2FoQ4_LDP_ITYw-12">
          <mxGeometry x="116" y="292" width="36" height="36" as="geometry" />
        </mxCell>
        <mxCell id="YxnOUZ2FoQ4_LDP_ITYw-89" value="Playbook" style="text;html=1;align=center;verticalAlign=middle;whiteSpace=wrap;rounded=0;" vertex="1" parent="YxnOUZ2FoQ4_LDP_ITYw-12">
          <mxGeometry x="110" y="334" width="48" height="18" as="geometry" />
        </mxCell>
        <mxCell id="YxnOUZ2FoQ4_LDP_ITYw-92" value="Inventory" style="text;html=1;align=center;verticalAlign=middle;whiteSpace=wrap;rounded=0;" vertex="1" parent="YxnOUZ2FoQ4_LDP_ITYw-12">
          <mxGeometry x="176" y="328" width="60" height="30" as="geometry" />
        </mxCell>
        <mxCell id="YxnOUZ2FoQ4_LDP_ITYw-98" value="" style="verticalLabelPosition=bottom;html=1;verticalAlign=top;align=center;strokeColor=none;fillColor=#00BEF2;shape=mxgraph.azure.cloud_services_configuration_file;pointerEvents=1;" vertex="1" parent="YxnOUZ2FoQ4_LDP_ITYw-12">
          <mxGeometry x="222.01" y="120" width="36" height="36" as="geometry" />
        </mxCell>
        <mxCell id="YxnOUZ2FoQ4_LDP_ITYw-99" value="Playbook" style="text;html=1;align=center;verticalAlign=middle;whiteSpace=wrap;rounded=0;" vertex="1" parent="YxnOUZ2FoQ4_LDP_ITYw-12">
          <mxGeometry x="216.01" y="162" width="48" height="18" as="geometry" />
        </mxCell>
        <mxCell id="YxnOUZ2FoQ4_LDP_ITYw-100" value="" style="verticalLabelPosition=bottom;html=1;verticalAlign=top;align=center;strokeColor=none;fillColor=#00BEF2;shape=mxgraph.azure.cloud_services_configuration_file;pointerEvents=1;" vertex="1" parent="YxnOUZ2FoQ4_LDP_ITYw-12">
          <mxGeometry x="294.01" y="120" width="36" height="36" as="geometry" />
        </mxCell>
        <mxCell id="YxnOUZ2FoQ4_LDP_ITYw-101" value="Inventory" style="text;html=1;align=center;verticalAlign=middle;whiteSpace=wrap;rounded=0;" vertex="1" parent="YxnOUZ2FoQ4_LDP_ITYw-12">
          <mxGeometry x="282.01" y="156" width="60" height="30" as="geometry" />
        </mxCell>
        <mxCell id="YxnOUZ2FoQ4_LDP_ITYw-107" value="" style="whiteSpace=wrap;html=1;shape=mxgraph.basic.document" vertex="1" parent="YxnOUZ2FoQ4_LDP_ITYw-12">
          <mxGeometry x="305.02" y="228" width="149.99" height="180" as="geometry" />
        </mxCell>
        <mxCell id="YxnOUZ2FoQ4_LDP_ITYw-109" value="&lt;font style=&quot;font-size: 25px;&quot;&gt;ansible.cfg&lt;/font&gt;" style="text;html=1;align=center;verticalAlign=middle;whiteSpace=wrap;rounded=0;" vertex="1" parent="YxnOUZ2FoQ4_LDP_ITYw-12">
          <mxGeometry x="350.01" y="336" width="60" height="30" as="geometry" />
        </mxCell>
        <mxCell id="YxnOUZ2FoQ4_LDP_ITYw-22" style="rounded=0;orthogonalLoop=1;jettySize=auto;html=1;exitX=0;exitY=0.5;exitDx=0;exitDy=0;entryX=1;entryY=0.5;entryDx=0;entryDy=0;shape=link;" edge="1" parent="YxnOUZ2FoQ4_LDP_ITYw-6" source="YxnOUZ2FoQ4_LDP_ITYw-17" target="YxnOUZ2FoQ4_LDP_ITYw-12">
          <mxGeometry relative="1" as="geometry" />
        </mxCell>
        <mxCell id="YxnOUZ2FoQ4_LDP_ITYw-17" value="EC2 instance contents" style="points=[[0,0],[0.25,0],[0.5,0],[0.75,0],[1,0],[1,0.25],[1,0.5],[1,0.75],[1,1],[0.75,1],[0.5,1],[0.25,1],[0,1],[0,0.75],[0,0.5],[0,0.25]];outlineConnect=0;gradientColor=none;html=1;whiteSpace=wrap;fontSize=12;fontStyle=0;container=1;pointerEvents=0;collapsible=0;recursiveResize=0;shape=mxgraph.aws4.group;grIcon=mxgraph.aws4.group_ec2_instance_contents;strokeColor=#D86613;fillColor=none;verticalAlign=top;align=left;spacingLeft=30;fontColor=#D86613;dashed=0;" vertex="1" parent="YxnOUZ2FoQ4_LDP_ITYw-6">
          <mxGeometry x="740" y="60" width="304" height="276" as="geometry" />
        </mxCell>
        <mxCell id="YxnOUZ2FoQ4_LDP_ITYw-18" value="" style="sketch=0;outlineConnect=0;fontColor=#232F3E;gradientColor=none;fillColor=#232F3D;strokeColor=none;dashed=0;verticalLabelPosition=bottom;verticalAlign=top;align=center;html=1;fontSize=12;fontStyle=0;aspect=fixed;pointerEvents=1;shape=mxgraph.aws4.user;" vertex="1" parent="YxnOUZ2FoQ4_LDP_ITYw-17">
          <mxGeometry x="24" y="216" width="42" height="42" as="geometry" />
        </mxCell>
        <mxCell id="YxnOUZ2FoQ4_LDP_ITYw-19" value="" style="shape=image;html=1;verticalAlign=top;verticalLabelPosition=bottom;labelBackgroundColor=#ffffff;imageAspect=0;aspect=fixed;image=https://cdn1.iconfinder.com/data/icons/operating-system-flat-1/30/ubuntu-128.png;direction=south;" vertex="1" parent="YxnOUZ2FoQ4_LDP_ITYw-17">
          <mxGeometry x="204" y="12" width="32" height="32" as="geometry" />
        </mxCell>
        <mxCell id="YxnOUZ2FoQ4_LDP_ITYw-106" value="" style="sketch=0;outlineConnect=0;fontColor=#232F3E;gradientColor=none;fillColor=#232F3D;strokeColor=none;dashed=0;verticalLabelPosition=bottom;verticalAlign=top;align=center;html=1;fontSize=12;fontStyle=0;aspect=fixed;pointerEvents=1;shape=mxgraph.aws4.gear;" vertex="1" parent="YxnOUZ2FoQ4_LDP_ITYw-17">
          <mxGeometry x="165" y="120" width="58" height="58" as="geometry" />
        </mxCell>
        <mxCell id="YxnOUZ2FoQ4_LDP_ITYw-112" value="&lt;span style=&quot;font-size: 21px;&quot;&gt;SSH&lt;/span&gt;" style="text;html=1;align=center;verticalAlign=middle;whiteSpace=wrap;rounded=0;" vertex="1" parent="YxnOUZ2FoQ4_LDP_ITYw-17">
          <mxGeometry x="152" y="186" width="84" height="30" as="geometry" />
        </mxCell>
        <mxCell id="YxnOUZ2FoQ4_LDP_ITYw-57" style="edgeStyle=orthogonalEdgeStyle;rounded=0;orthogonalLoop=1;jettySize=auto;html=1;entryX=0.5;entryY=1;entryDx=0;entryDy=0;shape=link;" edge="1" parent="YxnOUZ2FoQ4_LDP_ITYw-6" source="YxnOUZ2FoQ4_LDP_ITYw-48" target="YxnOUZ2FoQ4_LDP_ITYw-12">
          <mxGeometry relative="1" as="geometry" />
        </mxCell>
        <mxCell id="YxnOUZ2FoQ4_LDP_ITYw-48" value="EC2 instance contents" style="points=[[0,0],[0.25,0],[0.5,0],[0.75,0],[1,0],[1,0.25],[1,0.5],[1,0.75],[1,1],[0.75,1],[0.5,1],[0.25,1],[0,1],[0,0.75],[0,0.5],[0,0.25]];outlineConnect=0;gradientColor=none;html=1;whiteSpace=wrap;fontSize=12;fontStyle=0;container=1;pointerEvents=0;collapsible=0;recursiveResize=0;shape=mxgraph.aws4.group;grIcon=mxgraph.aws4.group_ec2_instance_contents;strokeColor=#D86613;fillColor=none;verticalAlign=top;align=left;spacingLeft=30;fontColor=#D86613;dashed=0;" vertex="1" parent="YxnOUZ2FoQ4_LDP_ITYw-6">
          <mxGeometry x="98" y="588" width="376" height="144" as="geometry" />
        </mxCell>
        <mxCell id="YxnOUZ2FoQ4_LDP_ITYw-49" value="" style="sketch=0;outlineConnect=0;fontColor=#232F3E;gradientColor=none;fillColor=#232F3D;strokeColor=none;dashed=0;verticalLabelPosition=bottom;verticalAlign=top;align=center;html=1;fontSize=12;fontStyle=0;aspect=fixed;pointerEvents=1;shape=mxgraph.aws4.user;" vertex="1" parent="YxnOUZ2FoQ4_LDP_ITYw-48">
          <mxGeometry x="12" y="84" width="42" height="42" as="geometry" />
        </mxCell>
        <mxCell id="YxnOUZ2FoQ4_LDP_ITYw-50" value="" style="shape=image;html=1;verticalAlign=top;verticalLabelPosition=bottom;labelBackgroundColor=#ffffff;imageAspect=0;aspect=fixed;image=https://cdn1.iconfinder.com/data/icons/operating-system-flat-1/30/ubuntu-128.png;direction=south;" vertex="1" parent="YxnOUZ2FoQ4_LDP_ITYw-48">
          <mxGeometry x="344" width="32" height="32" as="geometry" />
        </mxCell>
        <mxCell id="YxnOUZ2FoQ4_LDP_ITYw-104" value="" style="sketch=0;outlineConnect=0;fontColor=#232F3E;gradientColor=none;fillColor=#232F3D;strokeColor=none;dashed=0;verticalLabelPosition=bottom;verticalAlign=top;align=center;html=1;fontSize=12;fontStyle=0;aspect=fixed;pointerEvents=1;shape=mxgraph.aws4.gear;" vertex="1" parent="YxnOUZ2FoQ4_LDP_ITYw-48">
          <mxGeometry x="222" y="26" width="58" height="58" as="geometry" />
        </mxCell>
        <mxCell id="YxnOUZ2FoQ4_LDP_ITYw-110" value="&lt;span style=&quot;font-size: 21px;&quot;&gt;SSH&lt;/span&gt;" style="text;html=1;align=center;verticalAlign=middle;whiteSpace=wrap;rounded=0;" vertex="1" parent="YxnOUZ2FoQ4_LDP_ITYw-48">
          <mxGeometry x="179" y="96" width="144" height="18" as="geometry" />
        </mxCell>
        <mxCell id="YxnOUZ2FoQ4_LDP_ITYw-58" style="edgeStyle=orthogonalEdgeStyle;rounded=0;orthogonalLoop=1;jettySize=auto;html=1;entryX=1;entryY=0.75;entryDx=0;entryDy=0;shape=link;" edge="1" parent="YxnOUZ2FoQ4_LDP_ITYw-6" source="YxnOUZ2FoQ4_LDP_ITYw-51" target="YxnOUZ2FoQ4_LDP_ITYw-12">
          <mxGeometry relative="1" as="geometry" />
        </mxCell>
        <mxCell id="YxnOUZ2FoQ4_LDP_ITYw-51" value="EC2 instance contents" style="points=[[0,0],[0.25,0],[0.5,0],[0.75,0],[1,0],[1,0.25],[1,0.5],[1,0.75],[1,1],[0.75,1],[0.5,1],[0.25,1],[0,1],[0,0.75],[0,0.5],[0,0.25]];outlineConnect=0;gradientColor=none;html=1;whiteSpace=wrap;fontSize=12;fontStyle=0;container=1;pointerEvents=0;collapsible=0;recursiveResize=0;shape=mxgraph.aws4.group;grIcon=mxgraph.aws4.group_ec2_instance_contents;strokeColor=#D86613;fillColor=none;verticalAlign=top;align=left;spacingLeft=30;fontColor=#D86613;dashed=0;" vertex="1" parent="YxnOUZ2FoQ4_LDP_ITYw-6">
          <mxGeometry x="696" y="480" width="324" height="252" as="geometry" />
        </mxCell>
        <mxCell id="YxnOUZ2FoQ4_LDP_ITYw-52" value="" style="sketch=0;outlineConnect=0;fontColor=#232F3E;gradientColor=none;fillColor=#232F3D;strokeColor=none;dashed=0;verticalLabelPosition=bottom;verticalAlign=top;align=center;html=1;fontSize=12;fontStyle=0;aspect=fixed;pointerEvents=1;shape=mxgraph.aws4.user;" vertex="1" parent="YxnOUZ2FoQ4_LDP_ITYw-51">
          <mxGeometry x="20" y="180" width="42" height="42" as="geometry" />
        </mxCell>
        <mxCell id="YxnOUZ2FoQ4_LDP_ITYw-53" value="" style="shape=image;html=1;verticalAlign=top;verticalLabelPosition=bottom;labelBackgroundColor=#ffffff;imageAspect=0;aspect=fixed;image=https://cdn1.iconfinder.com/data/icons/operating-system-flat-1/30/ubuntu-128.png;direction=south;" vertex="1" parent="YxnOUZ2FoQ4_LDP_ITYw-51">
          <mxGeometry x="248" y="12" width="32" height="32" as="geometry" />
        </mxCell>
        <mxCell id="YxnOUZ2FoQ4_LDP_ITYw-105" value="" style="sketch=0;outlineConnect=0;fontColor=#232F3E;gradientColor=none;fillColor=#232F3D;strokeColor=none;dashed=0;verticalLabelPosition=bottom;verticalAlign=top;align=center;html=1;fontSize=12;fontStyle=0;aspect=fixed;pointerEvents=1;shape=mxgraph.aws4.gear;" vertex="1" parent="YxnOUZ2FoQ4_LDP_ITYw-51">
          <mxGeometry x="177" y="72" width="58" height="58" as="geometry" />
        </mxCell>
        <mxCell id="YxnOUZ2FoQ4_LDP_ITYw-111" value="&lt;span style=&quot;font-size: 21px;&quot;&gt;SSH&lt;/span&gt;" style="text;html=1;align=center;verticalAlign=middle;whiteSpace=wrap;rounded=0;" vertex="1" parent="YxnOUZ2FoQ4_LDP_ITYw-51">
          <mxGeometry x="164" y="142" width="84" height="30" as="geometry" />
        </mxCell>
        <mxCell id="YxnOUZ2FoQ4_LDP_ITYw-33" value="&lt;font style=&quot;font-size: 26px;&quot;&gt;ansible-folder-remote&lt;/font&gt;" style="rounded=1;whiteSpace=wrap;html=1;" vertex="1" parent="1">
          <mxGeometry x="-384" y="321" width="336" height="162" as="geometry" />
        </mxCell>
        <mxCell id="YxnOUZ2FoQ4_LDP_ITYw-41" value="&lt;font style=&quot;font-size: 26px;&quot;&gt;git-folder-remote&lt;/font&gt;" style="rounded=1;whiteSpace=wrap;html=1;" vertex="1" parent="1">
          <mxGeometry x="-381" y="108" width="330" height="168" as="geometry" />
        </mxCell>
        <mxCell id="YxnOUZ2FoQ4_LDP_ITYw-42" style="edgeStyle=orthogonalEdgeStyle;rounded=0;orthogonalLoop=1;jettySize=auto;html=1;" edge="1" parent="1" source="YxnOUZ2FoQ4_LDP_ITYw-30" target="YxnOUZ2FoQ4_LDP_ITYw-41">
          <mxGeometry relative="1" as="geometry" />
        </mxCell>
        <mxCell id="YxnOUZ2FoQ4_LDP_ITYw-67" value="" style="sketch=0;outlineConnect=0;fontColor=#232F3E;gradientColor=none;fillColor=#232F3D;strokeColor=none;dashed=0;verticalLabelPosition=bottom;verticalAlign=top;align=center;html=1;fontSize=12;fontStyle=0;aspect=fixed;pointerEvents=1;shape=mxgraph.aws4.user;" vertex="1" parent="1">
          <mxGeometry x="-348" y="-66" width="78" height="78" as="geometry" />
        </mxCell>
        <mxCell id="YxnOUZ2FoQ4_LDP_ITYw-71" value="&lt;font style=&quot;font-size: 19px;&quot;&gt;Student&lt;/font&gt;" style="text;html=1;align=center;verticalAlign=middle;whiteSpace=wrap;rounded=0;" vertex="1" parent="1">
          <mxGeometry x="-339" y="36" width="60" height="30" as="geometry" />
        </mxCell>
        <mxCell id="YxnOUZ2FoQ4_LDP_ITYw-72" value="&lt;font style=&quot;font-size: 21px;&quot;&gt;Token&lt;/font&gt;" style="text;html=1;align=center;verticalAlign=middle;whiteSpace=wrap;rounded=0;" vertex="1" parent="1">
          <mxGeometry x="-219" y="36" width="60" height="30" as="geometry" />
        </mxCell>
        <mxCell id="YxnOUZ2FoQ4_LDP_ITYw-75" value="" style="rounded=0;whiteSpace=wrap;html=1;" vertex="1" parent="1">
          <mxGeometry x="-900" y="-108" width="408" height="684" as="geometry" />
        </mxCell>
        <mxCell id="YxnOUZ2FoQ4_LDP_ITYw-76" value="" style="sketch=0;outlineConnect=0;fontColor=#232F3E;gradientColor=none;fillColor=#232F3D;strokeColor=none;dashed=0;verticalLabelPosition=bottom;verticalAlign=top;align=center;html=1;fontSize=12;fontStyle=0;aspect=fixed;pointerEvents=1;shape=mxgraph.aws4.user;" vertex="1" parent="1">
          <mxGeometry x="-744" y="336" width="78" height="78" as="geometry" />
        </mxCell>
        <mxCell id="YxnOUZ2FoQ4_LDP_ITYw-77" value="&lt;font style=&quot;font-size: 19px;&quot;&gt;l3002&lt;/font&gt;" style="text;html=1;align=center;verticalAlign=middle;whiteSpace=wrap;rounded=0;" vertex="1" parent="1">
          <mxGeometry x="-735" y="444" width="60" height="30" as="geometry" />
        </mxCell>
        <mxCell id="YxnOUZ2FoQ4_LDP_ITYw-82" style="edgeStyle=orthogonalEdgeStyle;rounded=0;orthogonalLoop=1;jettySize=auto;html=1;exitX=0.5;exitY=0;exitDx=0;exitDy=0;entryX=0.5;entryY=0;entryDx=0;entryDy=0;" edge="1" parent="1" source="YxnOUZ2FoQ4_LDP_ITYw-80" target="YxnOUZ2FoQ4_LDP_ITYw-94">
          <mxGeometry relative="1" as="geometry">
            <Array as="points">
              <mxPoint x="579" y="-216" />
              <mxPoint x="-705" y="-216" />
            </Array>
          </mxGeometry>
        </mxCell>
        <mxCell id="YxnOUZ2FoQ4_LDP_ITYw-93" style="edgeStyle=orthogonalEdgeStyle;rounded=0;orthogonalLoop=1;jettySize=auto;html=1;entryX=1;entryY=0.5;entryDx=0;entryDy=0;" edge="1" parent="1" source="YxnOUZ2FoQ4_LDP_ITYw-85" target="YxnOUZ2FoQ4_LDP_ITYw-33">
          <mxGeometry relative="1" as="geometry" />
        </mxCell>
        <mxCell id="YxnOUZ2FoQ4_LDP_ITYw-94" value="&lt;font style=&quot;font-size: 30px;&quot;&gt;nu-tech-P1&lt;/font&gt;" style="rounded=1;whiteSpace=wrap;html=1;" vertex="1" parent="1">
          <mxGeometry x="-822" y="-36" width="234" height="276" as="geometry" />
        </mxCell>
        <mxCell id="YxnOUZ2FoQ4_LDP_ITYw-97" value="" style="sketch=0;aspect=fixed;pointerEvents=1;shadow=0;dashed=0;html=1;strokeColor=none;labelPosition=center;verticalLabelPosition=bottom;verticalAlign=top;align=center;fillColor=#00188D;shape=mxgraph.mscae.enterprise.key_permissions" vertex="1" parent="1">
          <mxGeometry x="-204" y="-60" width="37.44" height="72" as="geometry" />
        </mxCell>
      </root>
    </mxGraphModel>
  </diagram>
</mxfile>
